{
	"asset":{
		"generator":"Khronos glTF Blender I/O v3.5.30",
		"version":"2.0"
	},
	"extensionsUsed":[
		"KHR_materials_transmission",
		"KHR_materials_specular",
		"KHR_materials_ior"
	],
	"scene":0,
	"scenes":[
		{
			"name":"Scene",
			"nodes":[
				0,
				1
			]
		}
	],
	"nodes":[
		{
			"mesh":0,
			"name":"Cube",
			"scale":[
				2.3000876903533936,
				0.01744520477950573,
				0.6144319772720337
			],
			"translation":[
				0.002349346876144409,
				-0.804603099822998,
				1.863856315612793
			]
		},
		{
			"mesh":1,
			"name":"Cube.001",
			"scale":[
				2.3000876903533936,
				0.01744520477950573,
				0.6144319772720337
			]
		}
	],
	"materials":[
		{
			"alphaMode":"BLEND",
			"doubleSided":true,
			"extensions":{
				"KHR_materials_transmission":{
					"transmissionFactor":0.12598425149917603
				},
				"KHR_materials_specular":{
					"specularColorFactor":[
						0.2810215389724553,
						0.2810215389724553,
						0.2810215389724553
					]
				},
				"KHR_materials_ior":{
					"ior":1.4500000476837158
				}
			},
			"name":"Material.001",
			"pbrMetallicRoughness":{
				"baseColorTexture":{
					"index":0
				},
				"metallicFactor":0,
				"roughnessFactor":0.32677164673805237
			}
		},
		{
			"doubleSided":true,
			"name":"Material.003",
			"pbrMetallicRoughness":{
				"baseColorFactor":[
					0.800000011920929,
					0.800000011920929,
					0.800000011920929,
					1
				],
				"metallicFactor":0,
				"roughnessFactor":0.5
			}
		}
	],
	"meshes":[
		{
			"name":"Cube.002",
			"primitives":[
				{
					"attributes":{
						"POSITION":0,
						"TEXCOORD_0":1,
						"NORMAL":2
					},
					"indices":3,
					"material":0
				}
			]
		},
		{
			"name":"Cube.003",
			"primitives":[
				{
					"attributes":{
						"POSITION":4,
						"TEXCOORD_0":5,
						"NORMAL":6
					},
					"indices":7,
					"material":1
				}
			]
		}
	],
	"textures":[
		{
			"sampler":0,
			"source":0
		}
	],
	"images":[
		{
			"bufferView":4,
			"mimeType":"image/jpeg",
			"name":"2457386"
		}
	],
	"accessors":[
		{
			"bufferView":0,
			"componentType":5126,
			"count":4680,
			"max":[
				1,
				1.7037122249603271,
				1
			],
			"min":[
				-1,
				-1,
				-1
			],
			"type":"VEC3"
		},
		{
			"bufferView":1,
			"componentType":5126,
			"count":4680,
			"type":"VEC2"
		},
		{
			"bufferView":2,
			"componentType":5126,
			"count":4680,
			"type":"VEC3"
		},
		{
			"bufferView":3,
			"componentType":5123,
			"count":19428,
			"type":"SCALAR"
		},
		{
			"bufferView":5,
			"componentType":5126,
			"count":142,
			"max":[
				1.4806108474731445,
				70.03749084472656,
				1.925687551498413
			],
			"min":[
				-1.4806108474731445,
				-53.537139892578125,
				-0.5982720851898193
			],
			"type":"VEC3"
		},
		{
			"bufferView":6,
			"componentType":5126,
			"count":142,
			"type":"VEC2"
		},
		{
			"bufferView":7,
			"componentType":5126,
			"count":142,
			"type":"VEC3"
		},
		{
			"bufferView":8,
			"componentType":5123,
			"count":690,
			"type":"SCALAR"
		}
	],
	"bufferViews":[
		{
			"buffer":0,
			"byteLength":56160,
			"byteOffset":0,
			"target":34962
		},
		{
			"buffer":0,
			"byteLength":37440,
			"byteOffset":56160,
			"target":34962
		},
		{
			"buffer":0,
			"byteLength":56160,
			"byteOffset":93600,
			"target":34962
		},
		{
			"buffer":0,
			"byteLength":38856,
			"byteOffset":149760,
			"target":34963
		},
		{
			"buffer":0,
			"byteLength":470806,
			"byteOffset":188616
		},
		{
			"buffer":0,
			"byteLength":1704,
			"byteOffset":659424,
			"target":34962
		},
		{
			"buffer":0,
			"byteLength":1136,
			"byteOffset":661128,
			"target":34962
		},
		{
			"buffer":0,
			"byteLength":1704,
			"byteOffset":662264,
			"target":34962
		},
		{
			"buffer":0,
			"byteLength":1380,
			"byteOffset":663968,
			"target":34963
		}
	],
	"samplers":[
		{
			"magFilter":9729,
			"minFilter":9987
		}
	],
	"buffers":[
		{
			"byteLength":665348,
			"uri":"data:application/octet-stream;base64,"
		}
	]
}
