{
	"asset":{
		"generator":"Khronos glTF Blender I/O v3.5.30",
		"version":"2.0"
	},
	"scene":0,
	"scenes":[
		{
			"name":"Scene",
			"nodes":[
				0
			]
		}
	],
	"nodes":[
		{
			"mesh":0,
			"name":"Roundcube.003",
			"scale":[
				0.8425610065460205,
				0.8425610065460205,
				0.8425610065460205
			],
			"translation":[
				0,
				1.5974321365356445,
				0
			]
		}
	],
	"materials":[
		{
			"doubleSided":true,
			"name":"Material.001",
			"pbrMetallicRoughness":{
				"metallicFactor":0
			}
		},
		{
			"doubleSided":true,
			"name":"Material.002",
			"pbrMetallicRoughness":{
				"baseColorFactor":[
					0.8000000715255737,
					0.6106835007667542,
					0.44081738591194153,
					1
				],
				"metallicFactor":0,
				"roughnessFactor":0.5
			}
		}
	],
	"meshes":[
		{
			"name":"Roundcube.003",
			"primitives":[
				{
					"attributes":{
						"POSITION":0,
						"TEXCOORD_0":1,
						"NORMAL":2
					},
					"indices":3,
					"material":0
				},
				{
					"attributes":{
						"POSITION":4,
						"TEXCOORD_0":5,
						"NORMAL":6
					},
					"indices":7,
					"material":1
				}
			]
		}
	],
	"accessors":[
		{
			"bufferView":0,
			"componentType":5126,
			"count":2402,
			"max":[
				1.0319222211837769,
				0.9764182567596436,
				1.0382897853851318
			],
			"min":[
				-1.040012001991272,
				-0.9979424476623535,
				-0.9792540073394775
			],
			"type":"VEC3"
		},
		{
			"bufferView":1,
			"componentType":5126,
			"count":2402,
			"type":"VEC2"
		},
		{
			"bufferView":2,
			"componentType":5126,
			"count":2402,
			"type":"VEC3"
		},
		{
			"bufferView":3,
			"componentType":5123,
			"count":14400,
			"type":"SCALAR"
		},
		{
			"bufferView":4,
			"componentType":5126,
			"count":15636,
			"max":[
				1.0221443176269531,
				1.1061022281646729,
				1.0285248756408691
			],
			"min":[
				-1.0221443176269531,
				-1.1061022281646729,
				-1.0285248756408691
			],
			"type":"VEC3"
		},
		{
			"bufferView":5,
			"componentType":5126,
			"count":15636,
			"type":"VEC2"
		},
		{
			"bufferView":6,
			"componentType":5126,
			"count":15636,
			"type":"VEC3"
		},
		{
			"bufferView":7,
			"componentType":5123,
			"count":92160,
			"type":"SCALAR"
		}
	],
	"bufferViews":[
		{
			"buffer":0,
			"byteLength":28824,
			"byteOffset":0,
			"target":34962
		},
		{
			"buffer":0,
			"byteLength":19216,
			"byteOffset":28824,
			"target":34962
		},
		{
			"buffer":0,
			"byteLength":28824,
			"byteOffset":48040,
			"target":34962
		},
		{
			"buffer":0,
			"byteLength":28800,
			"byteOffset":76864,
			"target":34963
		},
		{
			"buffer":0,
			"byteLength":187632,
			"byteOffset":105664,
			"target":34962
		},
		{
			"buffer":0,
			"byteLength":125088,
			"byteOffset":293296,
			"target":34962
		},
		{
			"buffer":0,
			"byteLength":187632,
			"byteOffset":418384,
			"target":34962
		},
		{
			"buffer":0,
			"byteLength":184320,
			"byteOffset":606016,
			"target":34963
		}
	],
	"buffers":[
		{
			"byteLength":790336,
			"uri":"data:application/octet-stream;base64,"
		}
	]
}
